<svg xmlns="http://www.w3.org/2000/svg" viewBox="0 0 64 64" fill="none">
  <circle cx="32" cy="32" r="30" fill="#f7f7f7" stroke="#f0b429" stroke-width="4"/>
  <path d="M32 2a30 30 0 0 0-22.5 10.1c8.6 2.1 18.9 4.4 27.6 1.1C43.6 10 50 4 50 4" stroke="#3f8fd9" stroke-width="3" stroke-linecap="round"/>
  <path d="M60 32c0-8.4-3.2-16-8.4-21.8-6.3 6.6-13.5 13.6-21.6 15-9 1.5-18.6-2.9-26-6.5" stroke="#3f8fd9" stroke-width="3" stroke-linecap="round"/>
  <path d="M10.3 50.4C16.3 55.8 23.8 59 32 59c8.2 0 15.7-3.2 21.7-8.6-9.8-1.8-20.7-4.8-25.6-11.3-4.8-6.3-5.4-15.5-5.5-22.7" stroke="#3f8fd9" stroke-width="3" stroke-linecap="round"/>
  <path d="M14.5 13.9c3.9 3.4 6.4 9.5 7 14.7.6 5.3-.7 10.9-2 16" stroke="#f0b429" stroke-width="3" stroke-linecap="round"/>
  <path d="M49.5 46c-4.2-1.3-8.5-5.7-10.8-9.7-2.4-4.1-3.4-8.8-4.4-13.4" stroke="#f0b429" stroke-width="3" stroke-linecap="round"/>
</svg>
